# xmcd CD database file
#
# Track frame offsets:
#	182
#	10972
#	24447
#	45180
#	49800
#	97887
#	107877
#	118380
#	132282
#	143892
#	158100
#	168472
#	186835
#	196352
#	210520
#
# Disc length: 2966 seconds
#
# Revision: 2
# Processed by: cddbd v1.5.1PL0 Copyright (c) Steve Scherf et al.
# Submitted via: CDex 1.51
#
DISCID=cb0b940f
DTITLE=Poutnici - Poutnici
DYEAR=1997
DGENRE=Bluegrass
TTITLE0=Panenka
TTITLE1=Az uslysim hvizdani
TTITLE2=Napsal jsem jmeno svy na zdi
TTITLE3=Skotka sukne
TTITLE4=Telegrafni cesta (Telegraph Road)
TTITLE5=Vsem Krystofum Kolumbum
TTITLE6=Navrat
TTITLE7=Vzor 63
TTITLE8=Blues o touze letat (Try Me One More Time)
TTITLE9=Jezdci
TTITLE10=Podobenstvi o naramcich
TTITLE11=a o muzskym stesti
TTITLE12=Deset korun (Why Been Gone So Long)
TTITLE13=Ukolebavka pro milenku
TTITLE14=Slava
EXTD=Bonton 71 0538-2 YEAR: 1997
EXTT0=
EXTT1=
EXTT2=
EXTT3=
EXTT4=
EXTT5=
EXTT6=
EXTT7=
EXTT8=
EXTT9=
EXTT10=
EXTT11=
EXTT12=
EXTT13=
EXTT14=
PLAYORDER=
